<?xml version="1.0" encoding="utf-8"?>
<!-- Generator: Adobe Illustrator 25.0.1, SVG Export Plug-In . SVG Version: 6.00 Build 0)  -->
<svg version="1.1" id="Laag_1" xmlns="http://www.w3.org/2000/svg" xmlns:xlink="http://www.w3.org/1999/xlink" x="0px" y="0px"
	 viewBox="0 0 30.7 30.7" style="enable-background:new 0 0 30.7 30.7;" xml:space="preserve">
<style type="text/css">
	.st0{fill:#CDCCCC;}
</style>
<g>
	<path class="st0" d="M26.2,4.5c-6-6-15.7-6-21.7,0s-6,15.7,0,21.7s15.7,6,21.7,0C32.2,20.1,32.2,10.4,26.2,4.5z M6.3,24.3
		c-5-5-5-13.1,0-18.1s13.1-5,18.1,0s5,13.1,0,18.1C19.4,29.3,11.3,29.3,6.3,24.3z"/>
	<rect x="14.1" y="7.8" transform="matrix(0.7071 -0.7071 0.7071 0.7071 -6.3067 15.3341)" class="st0" width="2.6" height="14.9"/>
	<rect x="7.9" y="14" transform="matrix(0.7071 -0.7071 0.7071 0.7071 -6.2982 15.3584)" class="st0" width="14.9" height="2.6"/>
</g>
</svg>
